<?xml version="1.0" encoding="utf-8" standalone="yes"?>
<?xml-stylesheet href="SVGStyle.css" type="text/css"?>
<svg xmlns="http://www.w3.org/2000/svg" version="1.2" baseProfile="tiny" xml:space="preserve" style="shape-rendering:geometricPrecision; fill-rule:evenodd;" width="18.7mm" height="18.7mm" viewBox="-16.7 -16.7 18.7 18.7">
  <title>ApproximatePosition</title>
  <desc>Approximate Position of NavigatoinalWarningFeaturePart description.</desc>
  <metadata>
    <S100SVG xmlns:iho="http://www.iho.int/SVGMetadata">
      <Description publisher="IHB" creationDate="2023-05-11" source="S52Preslib4.0" format="S100SVG" version="0.1" />
    </S100SVG>
  </metadata>
  <circle class="pivotPoint layout" fill="none" cx="0.00" cy="0.00" r="0.4" />
  <rect class="symbolBox layout" fill="none" x="-16.7" y="2" height="18.7" width="18.7" />
  <rect class="svgBox layout" fill="none" x="-16.7" y="-16.7" height="18.7" width="18.7" />
  <path d=" M -11.8,-11.5 L -4.6,-4.1" class="sl f0 sCHMGD" style="stroke-width:1.28;" />
  <path d=" M -14.7,-14.59 L -14.23,-14.7 L -13.6,-14.69 L -13.25,-14.45 L -13.03,-14.07 L -13.06,-13.59 L -13.27,-13.19 L -13.81,-13.01 L -13.8,-12.59 L -14.21,-12.59 L -14.22,-13.31 L -13.83,-13.39 L -13.6,-13.56 L -13.47,-13.82 L -13.57,-14.12 L -13.83,-14.29 L -14.24,-14.3 L -14.7,-14.19 L -14.7,-14.59" class="fCHMGD" style="stroke-width:1.28;fill-opacity:1.0;" />
  <path d=" M -14.29,-12.2 L -14.3,-11.8 L -14.2,-11.7 L -13.8,-11.7 L -13.7,-11.8 L -13.7,-12.2 L -13.8,-12.3 L -14.2,-12.3 L -14.3,-12.2" class="fCHMGD" style="stroke-width:1.28;fill-opacity:1.0;" />
</svg>